<?xml version="1.0" standalone="no"?>
<!DOCTYPE svg PUBLIC "-//W3C//DTD SVG 20010904//EN"
 "http://www.w3.org/TR/2001/REC-SVG-20010904/DTD/svg10.dtd">
<svg version="1.0" xmlns="http://www.w3.org/2000/svg"
 width="350.000000pt" height="350.000000pt" viewBox="0 0 350.000000 350.000000"
 preserveAspectRatio="xMidYMid meet">
<metadata>
Created by potrace 1.11, written by Peter Selinger 2001-2013
</metadata>
<g transform="translate(0.000000,350.000000) scale(0.100000,-0.100000)"
fill="#000000" stroke="none">
<path d="M1880 1685 c0 -638 2 -725 15 -725 8 0 15 -9 15 -20 0 -17 7 -20 50
-20 l50 0 0 725 c0 718 0 725 -20 725 -13 0 -20 7 -20 20 0 17 -7 20 -45 20
l-45 0 0 -725z"/>
<path d="M60 2295 c0 -19 5 -35 10 -35 6 0 10 -9 10 -20 0 -14 11 -22 38 -29
20 -6 43 -11 50 -11 16 0 16 -41 -8 -444 -13 -224 -24 -342 -31 -347 -7 -4
-38 -12 -70 -19 -58 -12 -59 -13 -59 -46 0 -24 5 -34 15 -34 8 0 15 -9 15 -20
0 -19 7 -20 185 -20 l185 0 0 30 c0 16 -6 33 -13 37 -8 4 -16 16 -20 25 -4 11
-22 20 -47 24 -22 4 -43 10 -46 15 -4 7 22 578 29 617 1 7 60 -121 131 -285
71 -164 148 -337 170 -385 40 -86 41 -88 76 -88 l35 0 154 358 c85 196 157
361 161 365 6 7 32 -379 34 -523 l1 -54 -62 -15 c-62 -14 -63 -15 -63 -48 0
-23 5 -33 15 -33 8 0 15 -9 15 -20 0 -19 7 -20 220 -20 l220 0 0 35 c0 24 -5
35 -15 35 -8 0 -15 8 -15 18 0 15 -13 22 -54 31 l-54 12 -6 82 c-3 45 -13 199
-21 342 -8 143 -17 283 -20 311 -5 50 -4 52 23 58 104 26 102 24 102 61 0 24
-5 35 -15 35 -8 0 -15 9 -15 20 0 19 -7 20 -147 20 l-148 0 -161 -376 -161
-376 -148 349 c-81 191 -153 353 -160 358 -6 6 -14 18 -18 28 -6 15 -23 17
-162 17 l-155 0 0 -35z"/>
<path d="M2907 2323 c-3 -5 -82 -210 -177 -458 -95 -247 -177 -453 -182 -456
-6 -4 -37 -12 -69 -18 -58 -12 -59 -12 -59 -47 0 -24 5 -34 15 -34 8 0 15 -9
15 -20 0 -19 7 -20 185 -20 l185 0 0 34 c0 25 -5 35 -20 39 -11 3 -20 12 -20
20 0 9 -14 18 -36 24 -19 4 -35 13 -35 18 1 6 13 43 27 83 l27 72 170 -2 170
-3 28 -77 28 -77 -54 -12 c-53 -12 -55 -13 -55 -46 0 -23 5 -33 15 -33 8 0 15
-9 15 -20 0 -19 7 -20 210 -20 l210 0 0 35 c0 19 -4 35 -9 35 -5 0 -11 9 -14
19 -3 14 -20 23 -60 31 l-55 13 -158 443 c-88 244 -164 444 -170 444 -7 0 -14
9 -17 20 -4 17 -14 20 -55 20 -28 0 -53 -3 -55 -7z m88 -473 c32 -88 56 -163
53 -165 -3 -3 -57 -4 -120 -3 l-114 3 60 162 c34 90 62 163 62 163 1 0 28 -72
59 -160z"/>
</g>
</svg>
